<?xml version="1.0" standalone="no"?>
<!DOCTYPE svg PUBLIC "-//W3C//DTD SVG 20010904//EN"
 "http://www.w3.org/TR/2001/REC-SVG-20010904/DTD/svg10.dtd">
<svg version="1.0" xmlns="http://www.w3.org/2000/svg"
 width="640.000000pt" height="640.000000pt" viewBox="0 0 640.000000 640.000000"
 preserveAspectRatio="xMidYMid meet">

<g transform="translate(0.000000,640.000000) scale(0.100000,-0.100000)"
fill="#000000" stroke="none">
<path d="M5230 5481 c-151 -65 -378 -175 -394 -191 -7 -7 1 -10 25 -10 33 0
260 -32 349 -49 43 -8 112 -23 190 -41 19 -4 85 -18 145 -29 61 -12 130 -26
155 -31 25 -5 47 -7 49 -5 15 15 -350 416 -378 415 -3 0 -67 -27 -141 -59z"/>
<path d="M1512 4323 c3 -724 3 -728 26 -794 27 -81 84 -149 156 -187 45 -23
62 -26 146 -26 108 0 154 17 223 83 96 91 107 150 107 619 l0 372 360 0 360 0
0 -1305 0 -1306 -287 3 c-201 1 -303 -2 -336 -10 -116 -29 -194 -88 -238 -178
-19 -40 -24 -65 -24 -134 0 -77 3 -92 33 -153 53 -107 129 -154 287 -177 89
-12 1703 -13 1801 0 213 28 320 139 318 330 -1 89 -26 156 -82 213 -89 93
-158 107 -519 107 l-283 0 0 1305 0 1305 360 0 360 0 0 -347 c0 -367 6 -445
41 -540 28 -76 103 -151 177 -177 72 -25 199 -20 263 12 55 27 114 83 140 134
47 91 49 135 49 879 l0 699 -1720 0 -1721 0 3 -727z"/>
<path d="M2568 3641 c-288 -195 -661 -403 -933 -520 -55 -24 -120 -52 -144
-63 -111 -50 -472 -176 -621 -218 -25 -7 -56 -16 -70 -21 -29 -9 -303 -76
-375 -91 -27 -5 -68 -14 -90 -18 -56 -12 -155 -29 -184 -32 -14 -2 -26 -7 -28
-13 -2 -9 275 -207 345 -245 15 -9 65 -38 112 -66 142 -84 326 -169 462 -213
162 -51 241 -65 383 -65 105 0 145 4 208 22 96 27 205 80 272 132 51 39 162
149 208 205 108 132 288 465 412 765 15 36 35 83 45 105 10 22 44 101 75 175
31 74 68 160 82 190 36 78 44 100 35 99 -4 -1 -91 -58 -194 -128z"/>
</g>
</svg>
